<svg width="34" height="34" viewBox="0 0 34 34" fill="none" xmlns="http://www.w3.org/2000/svg">
<path d="M16.8883 0C7.57619 0 0 7.58056 0 16.8983C0 26.2164 7.57619 33.7967 16.8883 33.7967C26.2007 33.7967 33.7772 26.2164 33.7772 16.8983C33.7769 7.58056 26.2005 0 16.8883 0ZM16.8883 32.13C8.49455 32.13 1.66571 25.2972 1.66571 16.8983C1.66571 8.49972 8.49455 1.66667 16.8883 1.66667C25.2821 1.66667 32.1115 8.49972 32.1115 16.8983C32.1112 25.2972 25.2821 32.13 16.8883 32.13Z" fill="black"/>
<path d="M22.0939 6.98279H18.4304C18.4218 6.98279 18.4135 6.98307 18.4054 6.9839C14.7067 6.99557 14.2237 9.57973 14.2217 11.8383C14.2167 11.8595 14.214 11.8811 14.214 11.9036V13.4892H11.6826C11.5294 13.4892 11.405 13.6136 11.405 13.767V17.6772C11.405 17.8308 11.5294 17.955 11.6826 17.955H14.214V26.5358C14.214 26.6895 14.3383 26.8136 14.4916 26.8136H18.1858C18.3394 26.8136 18.4635 26.6895 18.4635 26.5358V17.9553H22.0936C22.2471 17.9553 22.3712 17.8311 22.3712 17.6775V13.7672C22.3712 13.6139 22.2471 13.4895 22.0936 13.4895H18.1858V11.3875H22.0936C22.2471 11.3875 22.3712 11.2631 22.3712 11.1097V7.26057C22.3715 7.10723 22.2471 6.98279 22.0939 6.98279Z" fill="black"/>
</svg>
