<svg width="34" height="35" viewBox="0 0 34 35" fill="none" xmlns="http://www.w3.org/2000/svg">
<circle cx="17" cy="17.8983" r="16" stroke="white" stroke-width="2"/>
<path d="M24.0982 8.19244C24.0982 8.19244 22.6499 8.19244 21.1788 10.3983C20.4509 9.6697 18.2374 9.6628 17.504 9.6628C16.7678 9.6628 14.5557 9.6697 13.827 10.3983C12.356 8.19244 10.9111 8.19244 10.9111 8.19244C10.1246 10.1667 10.7402 11.5061 10.8884 11.8687C10.1536 12.6042 9.41528 13.3397 9.41528 17.016C9.41528 20.6922 12.0885 22.5362 15.3009 22.8981C14.8879 23.2572 14.5653 24.3685 14.5653 25.104C13.7402 25.4714 11.444 25.8243 10.1536 23.6336C10.1536 23.6336 9.41804 22.1633 7.94768 22.1633C7.94768 22.1633 6.47732 22.0247 7.94768 22.8988C7.94768 22.8988 8.68321 23.6343 9.41804 25.1047C9.41804 25.1047 10.541 28.1764 14.5653 27.3105C14.5736 28.5066 14.5653 30.252 14.5653 30.252H20.444V25.1047C20.444 24.5229 20.1228 23.2572 19.7085 22.8988C22.9208 22.5369 25.5906 20.6929 25.5906 17.0167C25.5906 13.3404 24.8551 12.6049 24.1202 11.8694C24.2698 11.5061 24.884 10.1667 24.0982 8.19244V8.19244Z" fill="white"/>
</svg>
