<svg width="34" height="34" viewBox="0 0 34 34" fill="none" xmlns="http://www.w3.org/2000/svg">
<path d="M16.8883 0C7.57619 0 0 7.58056 0 16.8983C0 26.2161 7.57619 33.7967 16.8883 33.7967C26.2007 33.7967 33.7769 26.2161 33.7769 16.8983C33.7769 7.58056 26.2005 0 16.8883 0ZM16.8883 32.13C8.49455 32.13 1.66571 25.2969 1.66571 16.8983C1.66571 8.49972 8.49455 1.66667 16.8883 1.66667C25.2821 1.66667 32.1112 8.49972 32.1112 16.8983C32.1112 25.2969 25.2821 32.13 16.8883 32.13Z" fill="white"/>
<path d="M22.2223 8.84277H11.6534C10.0946 8.84277 8.82617 10.1117 8.82617 11.6717V22.2953C8.82617 23.855 10.0943 25.1242 11.6534 25.1242H22.2221C23.7809 25.1242 25.0493 23.8553 25.0493 22.2953V11.6714C25.0493 10.1117 23.7812 8.84277 22.2223 8.84277ZM19.3826 16.9533C19.3826 18.3022 18.286 19.3994 16.9379 19.3994C15.5898 19.3994 14.4932 18.3022 14.4932 16.9533C14.4932 16.2842 14.7636 15.6775 15.2 15.2355H18.6755C19.1125 15.6775 19.3826 16.2842 19.3826 16.9533ZM20.0913 11.1061H22.5677V13.6586H20.0913V11.1061ZM22.2223 23.4572H11.6534C11.013 23.4572 10.4919 22.9358 10.4919 22.295V15.2355H13.2081C12.9663 15.7592 12.8275 16.3397 12.8275 16.9533C12.8275 19.2214 14.6714 21.0661 16.9379 21.0661C19.2044 21.0661 21.0483 19.2211 21.0483 16.9533C21.0483 16.3397 20.9095 15.7592 20.6677 15.2355H23.3836V22.295C23.3836 22.9358 22.8625 23.4572 22.2223 23.4572Z" fill="white"/>
</svg>
