<svg width="34" height="34" viewBox="0 0 34 34" fill="none" xmlns="http://www.w3.org/2000/svg">
<path d="M16.8883 0C7.57619 0 0 7.58056 0 16.8983C0 26.2161 7.57619 33.7967 16.8883 33.7967C26.2007 33.7967 33.7769 26.2161 33.7769 16.8983C33.7769 7.58056 26.2005 0 16.8883 0ZM16.8883 32.13C8.49455 32.13 1.66571 25.2969 1.66571 16.8983C1.66571 8.49972 8.49455 1.66667 16.8883 1.66667C25.2821 1.66667 32.1112 8.49972 32.1112 16.8983C32.1112 25.2969 25.2821 32.13 16.8883 32.13Z" fill="black"/>
<path d="M22.2222 8.84277H11.6533C10.0945 8.84277 8.82605 10.1117 8.82605 11.6717V22.2953C8.82605 23.855 10.0942 25.1242 11.6533 25.1242H22.2219C23.7808 25.1242 25.0492 23.8553 25.0492 22.2953V11.6714C25.0492 10.1117 23.781 8.84277 22.2222 8.84277ZM19.3825 16.9533C19.3825 18.3022 18.2859 19.3994 16.9378 19.3994C15.5897 19.3994 14.4931 18.3022 14.4931 16.9533C14.4931 16.2842 14.7635 15.6775 15.1999 15.2355H18.6754C19.1123 15.6775 19.3825 16.2842 19.3825 16.9533ZM20.0912 11.1061H22.5676V13.6586H20.0912V11.1061ZM22.2222 23.4572H11.6533C11.0128 23.4572 10.4918 22.9358 10.4918 22.295V15.2355H13.208C12.9662 15.7592 12.8274 16.3397 12.8274 16.9533C12.8274 19.2214 14.6713 21.0661 16.9378 21.0661C19.2042 21.0661 21.0482 19.2211 21.0482 16.9533C21.0482 16.3397 20.9094 15.7592 20.6676 15.2355H23.3835V22.295C23.3835 22.9358 22.8624 23.4572 22.2222 23.4572Z" fill="black"/>
</svg>
