<svg width="35" height="40" viewBox="0 0 35 40" fill="none" xmlns="http://www.w3.org/2000/svg">
<path d="M34.9848 29.36L33.7801 24.88C33.6998 24.48 33.2179 24.16 32.8164 24.32C32.4148 24.4 32.0936 24.88 32.2542 25.28L32.977 27.92L20.5288 20.8C20.6091 20.56 20.6091 20.24 20.6091 20C20.6091 19.68 20.5288 19.44 20.5288 19.12L32.8967 12L32.1739 14.64C32.0936 15.04 32.3345 15.52 32.7361 15.6C33.1376 15.68 33.6195 15.44 33.6998 15.04L34.9045 10.56C34.9848 10.16 34.7438 9.68 34.3423 9.6L29.8449 8.4C29.4433 8.32 28.9615 8.56 28.8812 8.96C28.8008 9.36 29.0418 9.84 29.4433 9.92L32.0936 10.64L19.7257 17.76C19.3242 17.36 18.8423 17.04 18.2801 16.96V2.72L20.2076 4.64C20.5288 4.96 21.0107 4.96 21.3319 4.64C21.6532 4.32 21.6532 3.84 21.3319 3.52L18.0392 0.24C17.7179 -0.08 17.2361 -0.08 16.9148 0.24L13.6221 3.52C13.3008 3.84 13.3008 4.32 13.6221 4.64C13.9433 4.96 14.4252 4.96 14.7464 4.64L16.6739 2.72V16.96C16.1117 17.12 15.6299 17.36 15.2283 17.76L2.86044 10.64L5.51069 9.92C5.91225 9.84 6.15318 9.36 6.07287 8.96C5.99256 8.56 5.51069 8.32 5.10914 8.4L0.611731 9.6C0.210177 9.68 -0.0307554 10.16 0.0495554 10.56L1.25422 15.04C1.33453 15.44 1.81639 15.68 2.21795 15.6C2.6195 15.52 2.94075 15.04 2.78012 14.64L2.05733 12L14.4252 19.2C14.3449 19.44 14.3449 19.76 14.3449 20C14.3449 20.32 14.3449 20.56 14.4252 20.8L2.05733 27.92L2.78012 25.28C2.86044 24.88 2.6195 24.4 2.21795 24.32C1.81639 24.24 1.33453 24.48 1.25422 24.88L0.0495554 29.36C-0.111066 29.84 0.129866 30.24 0.611731 30.4L5.10914 31.6C5.51069 31.68 5.99256 31.44 6.07287 31.04C6.15318 30.64 5.91225 30.16 5.51069 30.08L2.86044 29.36L15.2283 22.24C15.6299 22.64 16.1117 22.96 16.6739 23.04V37.28L14.7464 35.36C14.4252 35.04 13.9433 35.04 13.6221 35.36C13.3008 35.68 13.3008 36.16 13.6221 36.48L16.9148 39.76C17.2361 40.08 17.7179 40.08 18.0392 39.76L21.3319 36.48C21.6532 36.16 21.6532 35.68 21.3319 35.36C21.0107 35.04 20.5288 35.04 20.2076 35.36L18.2801 37.28V23.04C18.8423 22.88 19.3242 22.64 19.7257 22.24L32.0936 29.36L29.4433 30.08C29.0418 30.16 28.8008 30.64 28.8812 31.04C28.9615 31.44 29.4433 31.68 29.8449 31.6L34.3423 30.4C34.8242 30.24 35.0651 29.84 34.9848 29.36ZM17.477 21.6C16.6739 21.6 15.8708 20.96 15.8708 20C15.8708 19.12 16.5936 18.4 17.477 18.4C18.3604 18.4 19.0029 19.12 19.0029 20C19.0832 20.88 18.2801 21.6 17.477 21.6Z" fill="black"/>
<path d="M8.56259 11.04L13.7828 15.12C14.0237 15.36 14.4253 15.36 14.6662 15.2C14.9875 15.04 15.0678 14.72 15.0678 14.4L14.104 7.83998C14.104 7.67998 13.9434 7.43998 13.7828 7.35998L12.1766 5.99998C11.8553 5.67998 11.2932 5.75998 11.0522 6.07998C10.731 6.39998 10.8113 6.95998 11.1325 7.19998L12.4978 8.31998L13.1403 12.56L9.76726 9.91998L9.44601 8.15998C9.3657 7.75998 8.96415 7.43998 8.56259 7.51998C8.16104 7.59998 7.8398 7.99998 7.92011 8.39998L8.24135 10.48C8.32166 10.8 8.40197 10.96 8.56259 11.04ZM3.26208 20.96C2.86052 20.8 2.37866 21.04 2.21804 21.44C2.05741 21.84 2.29835 22.32 2.6999 22.48L4.70767 23.2C4.78798 23.2 4.86829 23.28 5.02892 23.28C5.10923 23.28 5.26985 23.28 5.35016 23.2L11.5341 20.72C11.8553 20.56 12.016 20.32 12.016 20C12.016 19.68 11.8553 19.36 11.5341 19.28L5.26985 16.8C5.10923 16.72 4.86829 16.72 4.70767 16.8L2.6999 17.52C2.29835 17.68 2.05741 18.16 2.21804 18.56C2.37866 18.96 2.86052 19.2 3.26208 19.04L4.94861 18.4L8.96415 20L4.94861 21.6L3.26208 20.96ZM14.1844 32.16L15.0678 25.6C15.1481 25.28 14.9875 24.96 14.6662 24.8C14.345 24.64 14.0237 24.64 13.7828 24.88L8.56259 28.96C8.40197 29.12 8.32166 29.28 8.24135 29.44L7.92011 31.52C7.8398 31.92 8.16104 32.4 8.56259 32.4C8.96415 32.48 9.44601 32.16 9.44601 31.76L9.76726 30L13.1403 27.36L12.4978 31.6L11.1325 32.72C10.8113 33.04 10.731 33.52 11.0522 33.84C11.3735 34.16 11.8553 34.24 12.1766 33.92L13.7828 32.56C14.0237 32.56 14.104 32.32 14.1844 32.16ZM26.3916 28.96L21.1714 24.8C20.6092 24.4 19.8061 24.88 19.8864 25.52L20.8502 32.08C20.8502 32.24 21.0108 32.48 21.1714 32.56L22.7776 33.92C23.0989 34.24 23.661 34.16 23.902 33.84C24.2232 33.52 24.1429 32.96 23.8217 32.72L22.4564 31.6L21.8139 27.36L25.1869 30L25.5082 31.76C25.5885 32.24 25.9901 32.48 26.3916 32.4C26.7932 32.32 27.1144 31.92 27.0341 31.52L26.7129 29.44C26.6325 29.2 26.5522 29.04 26.3916 28.96ZM31.6921 19.04C32.0937 19.2 32.5755 18.96 32.7362 18.56C32.8968 18.16 32.6559 17.68 32.2543 17.52L30.2465 16.8C30.0859 16.72 29.845 16.72 29.6844 16.8L23.5004 19.28C23.1792 19.44 23.0186 19.68 23.0186 20C23.0186 20.32 23.1792 20.64 23.5004 20.72L29.6844 23.2C29.845 23.28 30.0859 23.28 30.2465 23.2L32.2543 22.48C32.6559 22.32 32.8968 21.84 32.7362 21.44C32.5755 21.04 32.0937 20.8 31.6921 20.96L30.0056 21.6L25.9901 20L30.0056 18.4L31.6921 19.04ZM20.7698 7.83998L19.8864 14.4C19.8061 14.72 19.9667 15.04 20.288 15.2C20.5289 15.36 20.9305 15.36 21.1714 15.12L26.3916 11.04C26.5522 10.88 26.6325 10.72 26.7129 10.56L27.0341 8.47998C27.1144 8.07998 26.7932 7.59998 26.3916 7.59998C25.9901 7.51998 25.5082 7.83998 25.5082 8.23998L25.1869 9.99998L21.8139 12.64L22.4564 8.39998L23.8217 7.27998C24.1429 6.95998 24.2232 6.47998 23.902 6.15998C23.5807 5.83998 23.0989 5.75998 22.7776 6.07998L21.1714 7.43998C20.9305 7.43998 20.8502 7.67998 20.7698 7.83998Z" fill="black"/>
</svg>
