<svg width="275" height="160" viewBox="0 0 275 160" fill="none" xmlns="http://www.w3.org/2000/svg">
<g filter="url(#filter0_d_86_80)">
<path d="M50 45C50 39.4772 54.4772 35 60 35H215C220.523 35 225 39.4772 225 45V85C225 90.5228 220.523 95 215 95H60C54.4772 95 50 90.5229 50 85V45Z" fill="url(#paint0_linear_86_80)"/>
<path d="M51.5 45C51.5 40.3056 55.3056 36.5 60 36.5H215C219.694 36.5 223.5 40.3056 223.5 45V85C223.5 89.6944 219.694 93.5 215 93.5H60C55.3056 93.5 51.5 89.6944 51.5 85V45Z" stroke="white" stroke-width="3"/>
</g>
<defs>
<filter id="filter0_d_86_80" x="0" y="0" width="275" height="160" filterUnits="userSpaceOnUse" color-interpolation-filters="sRGB">
<feFlood flood-opacity="0" result="BackgroundImageFix"/>
<feColorMatrix in="SourceAlpha" type="matrix" values="0 0 0 0 0 0 0 0 0 0 0 0 0 0 0 0 0 0 127 0" result="hardAlpha"/>
<feOffset dy="15"/>
<feGaussianBlur stdDeviation="25"/>
<feColorMatrix type="matrix" values="0 0 0 0 0.6 0 0 0 0 0.6 0 0 0 0 0.6 0 0 0 0.25 0"/>
<feBlend mode="normal" in2="BackgroundImageFix" result="effect1_dropShadow_86_80"/>
<feBlend mode="normal" in="SourceGraphic" in2="effect1_dropShadow_86_80" result="shape"/>
</filter>
<linearGradient id="paint0_linear_86_80" x1="50" y1="65" x2="225" y2="65" gradientUnits="userSpaceOnUse">
<stop stop-color="#DF580C"/>
<stop offset="1" stop-color="#FD993D"/>
</linearGradient>
</defs>
</svg>
