<svg width="35" height="36" viewBox="0 0 35 36" fill="none" xmlns="http://www.w3.org/2000/svg">
<path fill-rule="evenodd" clip-rule="evenodd" d="M13.72 21.9966L22.2655 12.8443C22.6331 12.4085 22.1736 12.2995 21.7142 12.6264L11.239 20.4712L6.73654 18.8369C5.72577 18.51 5.72577 17.6384 6.92031 17.0936L24.6546 9.03086C25.4816 8.59504 26.2167 9.24877 25.941 10.7742L22.9087 27.6623C22.725 28.8609 22.0818 29.1877 21.2548 28.643L16.6604 24.6116L14.4551 27.1176C14.1794 27.4444 13.8119 27.4444 13.8119 27.1176L13.72 21.9966Z" fill="black"/>
<path d="M17.5 35.8983C7.875 35.8983 0 28.0233 0 18.3983C0 8.77332 7.875 0.898315 17.5 0.898315C27.125 0.898315 35 8.77332 35 18.3983C35 28.0233 27.125 35.8983 17.5 35.8983ZM17.5 2.64832C8.8375 2.64832 1.75 9.73582 1.75 18.3983C1.75 27.0608 8.8375 34.1483 17.5 34.1483C26.1625 34.1483 33.25 27.0608 33.25 18.3983C33.25 9.73582 26.1625 2.64832 17.5 2.64832Z" fill="black"/>
</svg>
