<svg width="34" height="34" viewBox="0 0 34 34" fill="none" xmlns="http://www.w3.org/2000/svg">
<path d="M16.8883 0C7.57619 0 0 7.58056 0 16.8983C0 26.2164 7.57619 33.7967 16.8883 33.7967C26.2007 33.7967 33.7772 26.2164 33.7772 16.8983C33.7769 7.58056 26.2005 0 16.8883 0ZM16.8883 32.13C8.49455 32.13 1.66571 25.2972 1.66571 16.8983C1.66571 8.49972 8.49455 1.66667 16.8883 1.66667C25.2821 1.66667 32.1115 8.49972 32.1115 16.8983C32.1112 25.2972 25.2821 32.13 16.8883 32.13Z" fill="black"/>
<path d="M24.4304 11.3928C24.8185 11.1922 25.7479 10.5964 26.186 9.31751C26.186 9.31751 25.1302 10.0814 23.6933 10.1714L23.6672 10.1858C22.9321 9.38307 21.8752 8.87946 20.7 8.87946C18.4768 8.87946 16.6748 10.6828 16.6748 12.9072C16.6748 13.2447 16.7168 13.5725 16.7953 13.8858L16.7759 13.8567C16.7759 13.8567 12.4645 14.1039 8.39988 9.65473C8.39988 9.65473 6.60286 12.7106 9.6797 15.0475C9.00592 15.1597 7.81605 14.5531 7.81605 14.5531C7.81605 14.5531 7.88323 17.7658 11.072 18.5525C10.5556 18.6875 9.58975 18.732 9.27549 18.5975C9.27549 18.5975 9.74688 21.0464 13.0033 21.4736C12.1724 21.9456 10.623 23.3833 7.11951 23.1136C7.11951 23.1136 9.63528 25.1806 14.3062 24.8889C18.9771 24.5972 22.3682 21.4508 23.738 18.1256C25.1077 14.8003 24.7266 12.907 24.7266 12.907C24.7266 12.907 25.8712 12.3058 26.658 10.8681C26.2946 10.977 24.9467 11.3064 24.4451 11.4283C24.4401 11.4167 24.4351 11.4047 24.4304 11.3928Z" fill="black"/>
</svg>
