<svg width="225" height="110" viewBox="0 0 225 110" fill="none" xmlns="http://www.w3.org/2000/svg">
<g filter="url(#filter0_d_86_77)">
<path d="M25 25C25 19.4772 29.4772 15 35 15H190C195.523 15 200 19.4772 200 25V65C200 70.5228 195.523 75 190 75H35C29.4772 75 25 70.5229 25 65V25Z" fill="url(#paint0_linear_86_77)"/>
<path d="M26.5 25C26.5 20.3056 30.3056 16.5 35 16.5H190C194.694 16.5 198.5 20.3056 198.5 25V65C198.5 69.6944 194.694 73.5 190 73.5H35C30.3056 73.5 26.5 69.6944 26.5 65V25Z" stroke="white" stroke-width="3"/>
</g>
<defs>
<filter id="filter0_d_86_77" x="0" y="0" width="225" height="110" filterUnits="userSpaceOnUse" color-interpolation-filters="sRGB">
<feFlood flood-opacity="0" result="BackgroundImageFix"/>
<feColorMatrix in="SourceAlpha" type="matrix" values="0 0 0 0 0 0 0 0 0 0 0 0 0 0 0 0 0 0 127 0" result="hardAlpha"/>
<feOffset dy="10"/>
<feGaussianBlur stdDeviation="12.5"/>
<feColorMatrix type="matrix" values="0 0 0 0 0 0 0 0 0 0 0 0 0 0 0 0 0 0 0.25 0"/>
<feBlend mode="normal" in2="BackgroundImageFix" result="effect1_dropShadow_86_77"/>
<feBlend mode="normal" in="SourceGraphic" in2="effect1_dropShadow_86_77" result="shape"/>
</filter>
<linearGradient id="paint0_linear_86_77" x1="25" y1="45" x2="200" y2="45" gradientUnits="userSpaceOnUse">
<stop stop-color="#DF580C"/>
<stop offset="1" stop-color="#FD993D"/>
</linearGradient>
</defs>
</svg>
