<svg width="40" height="40" viewBox="0 0 40 40" fill="none" xmlns="http://www.w3.org/2000/svg">
<path d="M17.7778 2.22218C17.7778 2.22218 17.7778 -4.00543e-05 20.0001 -4.00543e-05C22.2223 -4.00543e-05 22.2223 2.22218 22.2223 2.22218V4.4444C22.2223 4.4444 22.2223 6.66663 20.0001 6.66663C17.7778 6.66663 17.7778 4.4444 17.7778 4.4444V2.22218Z" fill="#FFF50D"/>
<path d="M37.7775 17.7777C37.7775 17.7777 39.9997 17.7777 39.9997 19.9999C39.9997 22.2222 37.7775 22.2222 37.7775 22.2222H35.5552C35.5552 22.2222 33.333 22.2222 33.333 19.9999C33.333 17.7777 35.5552 17.7777 35.5552 17.7777H37.7775Z" fill="#FFF50D"/>
<path d="M4.44444 17.7777C4.44444 17.7777 6.66667 17.7777 6.66667 19.9999C6.66667 22.2222 4.44444 22.2222 4.44444 22.2222H2.22222C2.22222 22.2222 0 22.2222 0 19.9999C0 17.7777 2.22222 17.7777 2.22222 17.7777H4.44444Z" fill="#FFF50D"/>
<path d="M10.1344 8.10445C10.1344 8.10445 11.7055 9.67556 10.1344 11.2467C8.56329 12.8178 6.99217 11.2467 6.99217 11.2467L5.41995 9.67556C5.41995 9.67556 3.84884 8.10445 5.41995 6.53223C6.99217 4.96112 8.56328 6.53223 8.56328 6.53223L10.1344 8.10445Z" fill="#FFF50D"/>
<path d="M33.4678 31.4366C33.4678 31.4366 35.0389 33.0077 33.4678 34.5788C31.8966 36.1499 30.3255 34.5788 30.3255 34.5788L28.7544 33.0077C28.7544 33.0077 27.1833 31.4366 28.7544 29.8655C30.3255 28.2944 31.8966 29.8655 31.8966 29.8655L33.4678 31.4366Z" fill="#FFF50D"/>
<path d="M33.009 11.2456C33.009 11.2456 31.4378 12.8167 29.8667 11.2456C28.2956 9.67446 29.8667 8.10335 29.8667 8.10335L31.4378 6.53224C31.4378 6.53224 33.009 4.96113 34.5801 6.53224C36.1512 8.10335 34.5801 9.67446 34.5801 9.67446L33.009 11.2456Z" fill="#FFF50D"/>
<path d="M9.67546 34.5788C9.67546 34.5788 8.10434 36.1499 6.53323 34.5788C4.96212 33.0077 6.53323 31.4366 6.53323 31.4366L8.10434 29.8655C8.10434 29.8655 9.67546 28.2944 11.2466 29.8655C12.8177 31.4366 11.2466 33.0077 11.2466 33.0077L9.67546 34.5788Z" fill="#FFF50D"/>
<path d="M17.7778 35.5556C17.7778 35.5556 17.7778 33.3333 20.0001 33.3333C22.2223 33.3333 22.2223 35.5556 22.2223 35.5556V37.7778C22.2223 37.7778 22.2223 40 20.0001 40C17.7778 40 17.7778 37.7778 17.7778 37.7778V35.5556Z" fill="#FFF50D"/>
<path d="M31.1109 20C31.1109 13.8633 26.1353 8.88886 19.9998 8.88886C13.8631 8.88886 8.88867 13.8633 8.88867 20C8.88867 26.1355 13.8631 31.1111 19.9998 31.1111C26.1353 31.1111 31.1109 26.1355 31.1109 20Z" fill="#FFF50D"/>
</svg>
