<svg width="34" height="34" viewBox="0 0 34 34" fill="none" xmlns="http://www.w3.org/2000/svg">
<path d="M16.9999 0C7.68776 0 0.111572 7.58056 0.111572 16.8983C0.111572 26.2164 7.68776 33.7967 16.9999 33.7967C26.3123 33.7967 33.8888 26.2164 33.8888 16.8983C33.8885 7.58056 26.312 0 16.9999 0ZM16.9999 32.13C8.60612 32.13 1.77728 25.2972 1.77728 16.8983C1.77728 8.49972 8.60612 1.66667 16.9999 1.66667C25.3937 1.66667 32.2231 8.49972 32.2231 16.8983C32.2228 25.2972 25.3937 32.13 16.9999 32.13Z" fill="white"/>
<path d="M12.3304 13.3178H8.42212V23.5217H12.3304V13.3178Z" fill="white"/>
<path d="M10.3374 11.69C11.4298 11.69 12.3154 10.8817 12.3154 9.88447C12.3154 8.88729 11.4298 8.07892 10.3374 8.07892C9.24497 8.07892 8.35938 8.88729 8.35938 9.88447C8.35938 10.8817 9.24497 11.69 10.3374 11.69Z" fill="white"/>
<path d="M22.1543 13.0872C21.3539 13.0872 20.6757 13.2331 20.1183 13.5244C19.5614 13.8161 19.0111 14.3011 18.4667 14.98V13.3178H14.8271V23.5217H18.7355V18.6214C18.7355 17.6925 18.8829 17.0492 19.1774 16.6903C19.472 16.3317 19.8556 16.1522 20.3295 16.1522C20.7585 16.1522 21.0913 16.2853 21.3284 16.5511C21.5655 16.8169 21.6835 17.27 21.6835 17.9108V23.5217H25.6112V17.0364C25.6112 15.6911 25.3053 14.6967 24.6937 14.0528C24.0829 13.4089 23.2359 13.0872 22.1543 13.0872Z" fill="white"/>
</svg>
