<svg width="34" height="34" viewBox="0 0 34 34" fill="none" xmlns="http://www.w3.org/2000/svg">
<path d="M16.8883 0C7.57619 0 0 7.58056 0 16.8983C0 26.2164 7.57619 33.7967 16.8883 33.7967C26.2007 33.7967 33.7772 26.2164 33.7772 16.8983C33.7769 7.58056 26.2005 0 16.8883 0ZM16.8883 32.13C8.49455 32.13 1.66571 25.2972 1.66571 16.8983C1.66571 8.49972 8.49455 1.66667 16.8883 1.66667C25.2821 1.66667 32.1115 8.49972 32.1115 16.8983C32.1112 25.2972 25.2821 32.13 16.8883 32.13Z" fill="white"/>
<path d="M24.4305 11.3928C24.8186 11.1922 25.7481 10.5964 26.1861 9.31751C26.1861 9.31751 25.1304 10.0814 23.6934 10.1714L23.6673 10.1858C22.9322 9.38307 21.8753 8.87946 20.7001 8.87946C18.477 8.87946 16.675 10.6828 16.675 12.9072C16.675 13.2447 16.7169 13.5725 16.7954 13.8858L16.776 13.8567C16.776 13.8567 12.4646 14.1039 8.4 9.65473C8.4 9.65473 6.60298 12.7106 9.67982 15.0475C9.00604 15.1597 7.81617 14.5531 7.81617 14.5531C7.81617 14.5531 7.88336 17.7658 11.0721 18.5525C10.5557 18.6875 9.58987 18.732 9.27561 18.5975C9.27561 18.5975 9.747 21.0464 13.0035 21.4736C12.1725 21.9456 10.6232 23.3833 7.11963 23.1136C7.11963 23.1136 9.6354 25.1806 14.3063 24.8889C18.9772 24.5972 22.3683 21.4508 23.7381 18.1256C25.1079 14.8003 24.7267 12.907 24.7267 12.907C24.7267 12.907 25.8713 12.3058 26.6581 10.8681C26.2947 10.977 24.9469 11.3064 24.4452 11.4283C24.4402 11.4167 24.4352 11.4047 24.4305 11.3928Z" fill="white"/>
</svg>
