<svg width="34" height="34" viewBox="0 0 34 34" fill="none" xmlns="http://www.w3.org/2000/svg">
<path d="M16.9999 0C7.68776 0 0.111572 7.58056 0.111572 16.8983C0.111572 26.2164 7.68776 33.7967 16.9999 33.7967C26.3123 33.7967 33.8888 26.2164 33.8888 16.8983C33.8885 7.58056 26.312 0 16.9999 0ZM16.9999 32.13C8.60612 32.13 1.77728 25.2972 1.77728 16.8983C1.77728 8.49972 8.60612 1.66667 16.9999 1.66667C25.3937 1.66667 32.2231 8.49972 32.2231 16.8983C32.2228 25.2972 25.3937 32.13 16.9999 32.13Z" fill="black"/>
<path d="M12.3304 13.3178H8.42212V23.5217H12.3304V13.3178Z" fill="black"/>
<path d="M10.3374 11.69C11.4298 11.69 12.3154 10.8817 12.3154 9.88447C12.3154 8.88729 11.4298 8.07892 10.3374 8.07892C9.24497 8.07892 8.35938 8.88729 8.35938 9.88447C8.35938 10.8817 9.24497 11.69 10.3374 11.69Z" fill="black"/>
<path d="M22.1544 13.0872C21.3541 13.0872 20.6758 13.2331 20.1184 13.5244C19.5615 13.8161 19.0112 14.3011 18.4668 14.98V13.3178H14.8273V23.5217H18.7356V18.6214C18.7356 17.6925 18.883 17.0492 19.1775 16.6903C19.4721 16.3317 19.8558 16.1522 20.3297 16.1522C20.7586 16.1522 21.0914 16.2853 21.3285 16.5511C21.5656 16.8169 21.6836 17.27 21.6836 17.9108V23.5217H25.6113V17.0364C25.6113 15.6911 25.3054 14.6967 24.6938 14.0528C24.083 13.4089 23.236 13.0872 22.1544 13.0872Z" fill="black"/>
</svg>
